<mxfile host="app.diagrams.net" agent="Mozilla/5.0 (Windows NT 10.0; Win64; x64) AppleWebKit/537.36 (KHTML, like Gecko) Chrome/137.0.0.0 Safari/537.36" version="27.1.4">
  <diagram name="Page-1" id="dVzb3QCAWDJDlyktZCMi">
    <mxGraphModel dx="3081" dy="934" grid="1" gridSize="20" guides="1" tooltips="1" connect="1" arrows="1" fold="1" page="1" pageScale="1" pageWidth="827" pageHeight="1169" background="none" math="1" shadow="0">
      <root>
        <mxCell id="0" />
        <mxCell id="1" parent="0" />
        <mxCell id="9U7wDqGc9obLiSCdICNy-21" value="" style="shape=image;verticalLabelPosition=bottom;labelBackgroundColor=default;verticalAlign=top;aspect=fixed;imageAspect=0;image=data:image/png,iVBORw0KGgoAAAANSUhEUgAAAggAAAGoCAMAAAAU1u0iAAAAAXNSR0IB2cksfwAAAAlwSFlzAAALEwAACxMBAJqcGAAAAdRQTFRFAAAAkJCQhYWFenp6b29vZGRkWVlZTk5OQ0NDSEhIU1NTXl5eaWlpdHR0f39/ioqKgYGBXFxcSkpKNzc3JSUlEhISAAAACQkJLi4uUlJSdnZ2iYmJX19fOzs7KSkpFhYWBAQECAgIGhoaLS0tQEBAS0tLVlZWYWFhbGxsd3d3goKCjY2NiIiIfX19cnJyZ2dnW1tbUFBQRUVFMTExExMTJiYmODg4cXFxg4ODWFhYIyMjPT09EBAQERERTExMhoaGbm5uNDQ0MDAwOTk5MjIycHBwdXV1PDw8AgICZWVlTU1NFxcXAwMDOjo6gICAVFRUR0dHfn5+WlpaDg4OQkJCh4eHPz8/YGBgbW1tHx8fHBwcNTU1IiIij4+PQUFBeXl5REREJycne3t7UVFRDAwMampqaGhoLCwsHR0dICAgi4uLBgYGXV1dVVVVeHh4KysrISEhBQUFT09PCwsLZmZmLy8vJCQkFBQUhISEKCgofHx8a2trKioqRkZGMzMzPj4+NjY2Hh4eGxsbjIyMDw8PY2Njjo6OSUlJAQEBDQ0NV1dXGRkZBwcHCgoKc3NzGBgYaWlpLS0tVlZWf39/f39/YmJiTU1NAAAAYGBgAAAAcnJyFRUV8vC7UAAAAJx0Uk5TAAMcNk9pgpy1qpB3XUQqESZ7pdH7////5pM/E3TI8v/////ovKOJcFY9IwoVL0hifpex3//5z0shhf/D//+gGlLY4czdTUHG/2ae///KKI6sLYD/uBi/clT//9b/Bbo4s/Yzlf9bYOv//w7/eYw67f//mf9k5P3/H/QxWe+u2sHT//8M/2sHp///h////0b/AAECAQBtAQEVEgP//EUMpwAAF8VJREFUeJztnXuATtX6x9c7bjNjZoyh5TZCaDgMZhSOk5Bccksu56iUjJQmMlEhSpJLRo1LiRyFRCQpSiVyOy6RQkxn6oeEiDHNMK4z5ve+20kXY2avtddaz1p7P58/Oqdz9vus7/vO591rv3uvi48giB8fdABED1AExAJFQCxQBMQCRUAsUATEAkVALFAExAJFQCxQBMQCRUAsUATEAkVALFAExAJFQCxQBMQCRUAsUATEAkVALFAExAJFQCxQBMQCRUAsUATEAkVALFAExAJFQCxQBMQCRUAsUATEAkVALFAExAJFQCxQBMQCRUAsUATEAkVALFAExAJFQCw8K4Lvz2RC54HGKyJEng63/uCFHxk46oj8QLrhZhEqWX/6M1f+veTvJ4A9+Rxe9/L/dSQvL/BvXvPBnSIE1StyMjvwX673+TKO1PVtYS1QMS/PYz64TYTI2vuDA+eA0HPVUn91XO03H2rszHZcS3NcJEKRJt8H/qNkVO6uS0ILB1Uvl0ZIjM+3TmhZvXCJCC2sXr9uWt5hWS3ERPzo/2fsuhxZDQDjAhHCYn7y/7Oeb5X0ltr4fDsIuZR1QXpL6jFchDvSThESfzFIvgS/0STKt400WnVeWYOKMFiEutW2+vOHF0tV3nLnoweIr8kHytuVibEi1MwkpKnvfajmmxw+T26kS6GaF4+ZIpS+bQO5NTW/u0IK6eFbS0KaLIINIQwDRejpW03izmnxU65U6/Xk9j07oWOIwDQR7sr8lrRengUd43fqlDhE2uS8Ax3DMUaJcJ/vExLUdi50jL/iCw4n7edAp3CIQSLUKpvW4atd0CnyJ+G7H1qtM/qZhDEiVMglkWnQIQoi/hDpNBs6BD+GiNDoQGffLOgQhfHQ3rS7djI/6NQEE0ToHbK021GwOwYsJKbt6uF7BToFF/qLEN3gyzpfQIewz8BFpGrMW9Ap2NFdBH/Pe+osdAg2Hju++vo47fuxv6K1CM0bLCQXM6BTcNB9ffzG09Ah2NBZhKQFeQ3UPVYUS0j4vSu/gw7Bgr4iNDrga6fdvSMGuq8v+ZNBo1h0FWHwfNLS9Oc5lc/ft0rTG2BXo6cIT8wjTZdBhxDAvauanfoMOoQ9dBQh9sYNQUehQwjiybkxcVOhQ9hBQxGemtPHNwE6hDiGz+5TZBx0iMLRToTK50m/sdAhhJKY9dnNGzR6cJ4/molQIZcU+Rk6hHCGHfz8oRegQxSCViKEhZLY1dAhpBAeQqpvhg5RIBqJEFEvrduMPOgUsnhmZrMTWgyvuwb6iPDAxz3eN3poRyH42m+L+xQ6xLXRRYTE9/Ju+hg6hGRiMjS+DtZEhMHzQ29+FzqEfJ6d0e016AzXQA8Rhr75yGjoDEqIvf3tXi9Dh8gXHURocIT0NOLumwgGz7/3893QIfJBAxHuXt07GTqDSh55r//z0BmuBlyEJ+aRO40bzuOMEbNI6f9Ch/gr0CIMWnjPZOAIALT9OvggdIa/ACtC4/2k4jegCYConU7Sc6FD/AlQEZ6bnnccsn1IkhZE74DO8EcARYg9Rlx/D6kA7tx840boDH8AToQSpTxxD+na9Fin0zUjmAidtrZ+G6ptXWj4010zoTP8BpQIT8351zSgpjWiWGlSTpO7S0AiUNLAkEGdkum2QZOJXDAiUPILSLsacv8n12+HzhAAQoSgso1WADSrKeEhJOMidAgQEWqdvHuK+lY1ZvSrGjxsUS/CAx+fPlP4UZ6i7/KYDdAZlIvw/Csd31DdpvaEhZLu02EjqBYBLxPzJSKYnISdMatYBPTgWlAC22MqFWHMtJL7VbZnFC9MTXwOsHmVIoydUneNwuZMo2xQ2D641hWKUCNL88k+0HTaCthxqhMh/tA57WeCAhN3mCQ9DdS2MhHGp/xtraq2jKXfByQKaOUlVSK0327k8mjKoaTU9yANKxKhQm7OSTUtmQ4lMDPo1Yhw4681/6OkIRfw4Icgv7GViNB1Y266inbcwZNzIX48qBAh+kK9zxU04xqCIwBMUCDC2Cn6jMwzgy6b1JsgX4SHllXZJr0Rl3Hrd8pNkC5CrZPaLgmgMX2XqzZBtgitd0LeQDeXgYsUmyBZhDbf9HlRbgtupetGtSbIFaH3ysdGSm3AxURfUGqCVBFij/mOyazvbsZOUWmCVBEoDlt3wkPLFJogUwQcl+aQnmvUfYISRaAkwUWLrIPQeL8yE+SJkLRg0Ahpxb1CxRxVJkgTocumrHOyanuIhBWKTJAlQu+VbeZLKu0tIoLVrDYmSwQ6eJikyl5j7BQlp1ZJIlQ9gz8YRNFlk4rZ0nJEGPk6roMhjkELT1yS3ogUEeIO47o4Ium2Qf75VYYItdNN2t7dBBTcmpMhAtVjMRg3Id8ECSK8+BJeKApHugniRXh2RnNPr6MpCdp1htT6wkUoHnn/JNE1kcAjfbmb3IgWofOWh8cILolYFCvdabbE8qJFmLBzoeCKyP+omSlz6WbBInRfjxeK0rh9V/1V0oqLFeFvJ554SmhB5I8kJ8tbYkKsCFXL4h0EmUj8ESlUhPhDx127t7MWJC7p8Kak0iJFCCpba73AcsjVDFgsax0qkSJMIk8IrIbkR/lLxQ5LKSxQhC6bcLCqfGRdJogToe4vET8IK4Zci8QlcharFCfCSy/iLQQVDFgs5b6SMBGiinpno29Yyl+S8Y0TJULiEhyMogoqY7UtUSLgIAR1JC6JXS28qCAR2m+HWjHUiwxYfOcs0TXFiDBuct/xQgohtpBwmSBGhBemYsegFCp8d3UhIoyd0nKRiDqIXRKX3LpEbEUhItAer4oog9hnwOJhg4UWFCFC143Vtgoog7Ag+jJBhAjiOyykcKjYO/oCROi7XJcdzz1FTIbQrSIFiEAfHeW8CMJMytsih4M5F2F8Cv1WQBCEGZqdLa6YcxEozI4jiP8rKPB60bEINbLwXhIUtPJXwmo5FoG2fltEDoSD3isfHCeqllMRyhTBEwIcDdMPiCrlVATabp6QHAgXtNfLgio5FEHOaBnELjEZoj5/ZyLc9+lNHwsKgnCR8pWg5SydiVA2CE8IwNDb3hFSx5EIzVN/vSAkBcKNqJsJjkTovxRPCOAIevjkRIRKFxuuFJEBcULvlUIePjkR4dkZeELQgIblPxJQxYkIFBfi1wJ69pTzIg5EKB6JJwQtaJsmYMKLAxE6Rixw3j4iACrgWo1fhM5bBA+fRHiJP+T83MwvwsjXsWfQBRqZ5rQEvwgU18nRhhKlHH8puUXouxxPCPpAmy5zWIFbBHrphMOmEXFMnOT0a8krQu10cYNjEOfQql86K8ArQtIC7Bl04l9fOPx78IpAcdcmvaDBBx29nlOEkHA8IehFWGjtdU5ezykCDTrqpFVEPNV8+5y8nE+EFnsV7ESIMFHvaJlUBy/nEyElFxfb1Y5mjV5y8Go+EYTOukPEkLCiy+v8r+YSQcAdTUQ8HfY6eBzNJcKQbLlbzyFcNN7f5EPuF3OJQGXuMoVwQx1s68EjQrHS2DNoycBF/H8YHhGSKg/hbg+RCY3ewftSHhFo5nne5hCptNrNfUrgEKFIGewZdIVmXOR8JYcIuCSCvtxTgfemEocItMRPnI0hsqmdfsMWvleyi+C7Tt52pIhTuJ9Gs4uAtxV1psERzr8OuwhDiuPWDBpDT53leh27CBT3atGZUa/xnRKYRcDbippDK+zkeRmzCEnv/8jTDqKKXrFDeV7GLAI9fYanHUQVsce4Bi+yi4BLcGvOozkzOV7FKkJYKF4iaA7fFAdWEcrcn8LRCqISWup79hexikAfGc3eCKIUrodBzCLg6hjaExEsX4S6v+Algv7Qx4czv4ZRBFwVwQR4+gZGEVK+XMjcBKKazluki0Crb2ZuAlEOR9/AKsLxPNYWEPVw9A1sItQ66eVLhMlJ0AnswtE3sInwbOgw1gYQCNj7BjYRaOxqxvouY8og6AT2YO8bGEXw/LbwUx+DTmAL9r6BUQQvXyJcZtpA6AS2YO4bmERosg9FIK8MgE5gB+a+gUkEHKZmDMx9A5MIz8xEEUyBtW9gEmH4ho1MxRE4WPsGJhFeSsZF9UyBtW9gEoHivq/mwNg3sInQbyxbGAQOxr6BTYRih9nCIHC02CtNBN91+KPBIGh6LsPRLCI03o8iGARtP4fhaBYRQsNQBIMYXnIkw9EsItybuYI1DAJH6WIs31sWETqUns8aBgGEaXYiiwiCNqhHFME0X5lJBI7h8ggcVRJG2T+YSYROs5nDIHDUzGS4SGAS4ZalzGEQOJimvjGJMGgEcxgEEDrqUdvHMomAy2iZRdW29pfMYBKhwWfsYRA4WNboZhKh3G72MAgc9Y5KEsHZFpOIcqj9HQCZRGj7FkcYBA5a8z92D2USAZ85GcbwrFftHooiuJk7vrL9J0MRXA1NetrmkQwijJmGIpgGbbjS5pEMIgx7A0UwDdpuns0jGUTAFdXM44Y2dvfsNfgaYXoidAL9sb97g7kivObrDx1Bf14dLUWEC7/yhJHETN9D0BH0p3mqFBFO5vCEQQChA5+xdyCTCP98hSsMAgft8rq9A5lE4Fn+HQHF9iwXFhGqVvf4mmoG0uH61+wdyCJCldve5AqDwFH5vM2rRRYRht/QjysMAkf0BQkitArBKW+mYXshPBYRmMbJI3pgdzQRiwhssyoRLbC7yg2LCIxrcCA6QJsus3Uciwhcm0YhsAzdsMnWcWxrKKEIxtHogL0/GpsI57K4wiBw2L2wYxOBYS4dogd2+3M2EaJ3cIVB4LC7FB6TCLc0G88VBgHE5oUdkwjVW/6bKwsCCO0+3c5hTCJEFcWfDcZBHxxn5zAmEZ6YhyIYh81VLXArH7dDL2bYOQw393I7tNZ6O4cxitDxDa4wCBzt8j61cxijCNnZXGEQOK7ramshJUYRbl3CFQaBo9elBXYOYxNh6OwTXGEQOG6vauvmD5sIt+3fzxUGgaP7eltX+GwitN+OPxtMo0KuBBH6fYAimIbNebBsIoybjCKYxssTJIiAq/Cah83bwawitH6bJwwCiL3bwYwiMO9G7zn0W2BIigitd+r2NrXD5vN/ddgLxCgCodft4QnjIWyvSKAKe3OdmEWITOMJ4yHow2OgI/DAKkLyGYYNozyJ3RklmsEqgs37VB7G0OtpVhH0uyjWjRpZRn5CrCLgfj6F4RkRcDvYgvGKCC0P4JPoAvGKCPV/NvJ9qsMrIuAtpULwjgi4MXCBeEaEWZtwtcWC8IwI41OMfKPK8IwImq3Wrx0eEiEWl2QuAO+IEH/IyHeqiifnGvnxcIhQ53jCBPFBXENysldEIDTO1rRKj9Kxiu1teHWCRwSbc2c8Cr1nMnQEHnhEKFWCfis8iGtg2KFdJ3hEwCeQBUF/vQAdgQcuEf65FvuGa0LPnoKOwAOXCD3W6TZkWyPo8TzoCDxwiUBo1jnBOVxD7DEzz5Z8IrT92sx3qwBTx2vwiTDsjaSnBQdxC3GHvSSCqbM4FHD7Lk+JYHc7CO9B63wBHYELThE6b0ER8ke7qY824RSB0Nx0oTncQuISQ78hvCIUjzT0DUvmzs2Gfi68IpB25ecIjOEanooYCR2BD24RxvuGiczhFox9DMMtAulYbrbAHG6BVtsKHYEPfhFa7jG0N5RJwgpTPxR+EXCp9nwwdx91ByIkLTD1TcvjhjYzoCNw4kCEiGCbG5F7CJp5HjoCJw5EIN2aDhGWwyXQJh9CR+DEiQg915RJFRbEFZh7ieBIBEJv/khUDndQtZKRA1cDOBKh60ac6vInaLHD0BF4cSQCoQ9MFJTDFZg6KCWAMxG6bDL3nUugWv1l0BG4cSYCoXXXiMnhCkzeH9WhCC334IpKVxhYNAU6Aj8ORSA0bJ+QHG7gxXe+ho7Aj1MRJk667R0hQVyAyT2DYxFItWyT375Iind6DzqCAxyLEHvM2NvrgrmumcnrDjoWgZS/hKeEAJUuGv05OBeB0N7JzouYz6B9y6EjOEGACHduLrvXeRXjMfpSUYgIpGr0RgFVDOcfeUbu4HMFESL0XjlohIAyZkPPZUFHcIQIEcjI180+LQogruG/oSM4Q4gIhLafI6SOuZg65fEKYkQw+fmrEMZOMf0DECMCmXDS2wMTHs8yfbaPIBEq5nh6RHPFHNNPCKJEIK12G/9ROCBljdE3kwKIEoGUu8m7A1nDQ8z/FggTgdBS3wurZRiPLzd0CvQfECfCq6ONndzhkAGLzT8hCBTB2PXEHEOL/AwdwTkCRSDtqswUWM0Ynpnphi+ASBHGTGu5SGA5U6AZF6EjCECkCKTBETd8Nxgpn3cMOoIIhIpABlUcKrSeATRPLXoEOoMIxIpAaLt5YgtqT4fGz0JHEIJgEYLKNvhMbEXNKRpl7rzXPyFYBHMXnOSEBh2FjiAG0SKQp47MF11SY8oUcYv3wkUgNPE54TV1pcXe+qugMwhCvAiERu8QX1RPDN3aLz8kiFCkzOkz4qvqyCOhL0FHEIYEEUhMRun/SiirHRMnueUCgcgRgYSEn8yRUVcvxk0e9Sh0BnFIEYE8Ofcf70sprBPl6rhptRg5IpAqZ1101syfGlmueouSRCCUuOpjupra6bXXQWcQiSwRXG8C/fsH0BGEIk0EQkvul1YbnpQF26AjiEWeCBHBIT9KKw5NmZs/gY4gGHkikDu+6v+8vOqguOoOwmUkikCiitb7XGJ5OCrmnM+EziAamSKQvsu7mrqhSYFQ1zxq+h2pIpARs9x4xWjsln4FIVcE0jzVfb8iqc8Vo1X/gmQRXHg/wXVv6DLSRXDbB3fDaVe9nSvIF8FdJrT92qWP0xSI4DfhwXEKmlFB9VNNzd2bo0BUiECef6XCThXtSKfXZw+Pgc4gCSUikOemdzJ9jaEA/Zfe9DF0BlmoEYF0Xx/3qZqWJJKc7OLBmIpEILd+V8PsJWoJGfpm8UPQGeShSgQyYDE5cUlVYzK4Jc3Ve9UoE4EkLiG3GLyzxZC3Or4BnUEm6kQIbPFh7kTBSRNdMtn1WqgUwd89NPooT2WDwmi3w0U3xfJFqQiB7sHEdWYSVrjyOdOfUCtCoHuIXa24SceEht3l/lXCVIvg7x6aGbYr3qCFlQze2NMuykUIdA9GTYhrt2PYYOgMClAvQqB7MGefj7DQ0APQGZQAIYK/exiy/V2Ihpm5/5O+46EzqAFEBEI6bGuxGKZlJpKTPbPSOJAIJPoCqbYVqG27dN5i1tWMI6BECIzxCD4I1rgdWu1209CqwoATgbT5hlzMgGu+EFrsJY8Phw6hEEARAqMU+pR6GjLAtRk+O2wfdAalgIpASsWmaTn2q3Qx4rXNbWFFIOTv/0d6TgXOcBVVztb5AjqDaqBFIOTmH+vqtRZRzczQ8N3QIZQDLwJp0e5ljebPR0SdyTwPHQIADUQgJKzsGU1UiCh7+tFR0CFA0EIEQnpuzdZABb8GIfHunMhUKJqIQEjrKh8Cq+DXIO9kLmgEQLQRgZDwoVMBVfBr0GyzKzbl4UMjEQipXfIgkAp+DYbO3QXStCZoJQIhCavP9k9V/oTar0GPPWtVt6oXmong/6MkLIhfr3RmWdevs+Mrz1LZoo5oJ4KfuMOk1T5Fz6gTPj9Hwu4eq6YxndFRBP9poc9CUrOD/OdRUUUJ6fWy9GZMQE8R/HRtOtFX4RuZLYyITCb9L0yQ2YRBaCsCIZX6TScdwiU9kRrz5VYSEumO5TuEoLEIfu7Y7iPdNgs/L4SFXSLEM6MR7aG3CH5CW24j5O61wr67rXO/JaTziTVZogq6BO1F8BPRdV02IbklHN/3sySIL78UJbgaE0QI0LjGKkJ6RKVP53x9bJEovwSkRKT3RhrYwxQRAtQvHtgAIiS6/XSGpQo6H/wpqHFOC7J2R72tp6RFMx+TRAhQq8eJy3Noa3RaU+AS6U9fWH0w6PK7a/V+zAl3r3IhANNEuEzz8icyrUkR8XWKZi4perF03x8yGr51/c+pQUGVajW7cofogWmDD74Fl9IozBThf/R+t0yfSwfqf3A4+/f/LaZG2r5Om/FKgBWjRUDEgSIgFigCYoEiIBYoAmKBIiAWKAJigSIgFigCYoEiIBYoAmKBIiAWKAJigSIgFigCYvH/wG9M9BlkK7wAAAAASUVORK5CYII=;" parent="1" vertex="1">
          <mxGeometry x="827" y="254" width="307.83" height="251" as="geometry" />
        </mxCell>
        <mxCell id="D4Swq6HpyOlGJ2e64USP-1" value="&lt;font style=&quot;font-size: 26px;&quot;&gt;Modélisation d&#39;une voile solaire&lt;/font&gt;" style="text;html=1;align=center;verticalAlign=middle;whiteSpace=wrap;rounded=1;fontStyle=4;" parent="1" vertex="1">
          <mxGeometry x="38" y="20" width="750" height="30" as="geometry" />
        </mxCell>
        <mxCell id="D4Swq6HpyOlGJ2e64USP-2" value="" style="endArrow=none;html=1;rounded=1;strokeWidth=2;" parent="1" edge="1">
          <mxGeometry width="50" height="50" relative="1" as="geometry">
            <mxPoint x="9" y="79" as="sourcePoint" />
            <mxPoint x="821" y="80" as="targetPoint" />
          </mxGeometry>
        </mxCell>
        <mxCell id="D4Swq6HpyOlGJ2e64USP-70" value="" style="endArrow=none;html=1;rounded=0;strokeWidth=2;" parent="1" edge="1">
          <mxGeometry width="50" height="50" relative="1" as="geometry">
            <mxPoint x="1180" y="528" as="sourcePoint" />
            <mxPoint x="1180" y="50" as="targetPoint" />
          </mxGeometry>
        </mxCell>
        <mxCell id="--ByVu5LHuy-HlIcs-8B-3" value="&lt;span style=&quot;font-size: 20px;&quot;&gt;&lt;u&gt;Expression de la distance `f`&lt;/u&gt;&lt;/span&gt;" style="text;html=1;align=left;verticalAlign=middle;whiteSpace=wrap;rounded=1;" parent="1" vertex="1">
          <mxGeometry x="-640" y="300" width="270" height="30" as="geometry" />
        </mxCell>
        <mxCell id="--ByVu5LHuy-HlIcs-8B-4" value="&lt;u style=&quot;&quot;&gt;&lt;font style=&quot;font-size: 19px;&quot;&gt;Equation du plan `T`&lt;/font&gt;&lt;/u&gt;" style="text;html=1;align=left;verticalAlign=middle;whiteSpace=wrap;rounded=1;" parent="1" vertex="1">
          <mxGeometry x="-620" y="340" width="270" height="30" as="geometry" />
        </mxCell>
        <mxCell id="--ByVu5LHuy-HlIcs-8B-14" value="" style="endArrow=none;html=1;rounded=1;strokeWidth=2;" parent="1" edge="1">
          <mxGeometry width="50" height="50" relative="1" as="geometry">
            <mxPoint x="-1020" y="980" as="sourcePoint" />
            <mxPoint x="-200" y="980" as="targetPoint" />
          </mxGeometry>
        </mxCell>
        <mxCell id="qYgjz1DPL4UpU3rZ518J-1" value="" style="endArrow=none;html=1;rounded=1;strokeWidth=2;" parent="1" edge="1">
          <mxGeometry width="50" height="50" relative="1" as="geometry">
            <mxPoint x="-500" y="720" as="sourcePoint" />
            <mxPoint x="-80" y="720" as="targetPoint" />
          </mxGeometry>
        </mxCell>
        <mxCell id="qYgjz1DPL4UpU3rZ518J-4" value="&lt;span style=&quot;font-size: 20px;&quot;&gt;&lt;u&gt;Exemple numérique&lt;/u&gt;&lt;/span&gt;" style="text;html=1;align=left;verticalAlign=middle;whiteSpace=wrap;rounded=1;" parent="1" vertex="1">
          <mxGeometry x="-480" y="80" width="270" height="30" as="geometry" />
        </mxCell>
        <mxCell id="qYgjz1DPL4UpU3rZ518J-99" value="" style="group" parent="1" vertex="1" connectable="0">
          <mxGeometry x="-980" y="300" width="27" height="336" as="geometry" />
        </mxCell>
        <mxCell id="qYgjz1DPL4UpU3rZ518J-95" value="&lt;font style=&quot;font-size: 14px;&quot;&gt;\((1)\)&lt;/font&gt;" style="text;html=1;align=center;verticalAlign=middle;whiteSpace=wrap;rounded=0;" parent="qYgjz1DPL4UpU3rZ518J-99" vertex="1">
          <mxGeometry width="27" height="30" as="geometry" />
        </mxCell>
        <mxCell id="qYgjz1DPL4UpU3rZ518J-96" value="&lt;font style=&quot;font-size: 14px;&quot;&gt;\((2)\)&lt;/font&gt;" style="text;html=1;align=center;verticalAlign=middle;whiteSpace=wrap;rounded=0;" parent="qYgjz1DPL4UpU3rZ518J-99" vertex="1">
          <mxGeometry y="82" width="27" height="30" as="geometry" />
        </mxCell>
        <mxCell id="qYgjz1DPL4UpU3rZ518J-97" value="&lt;font style=&quot;font-size: 14px;&quot;&gt;\((3)\)&lt;/font&gt;" style="text;html=1;align=center;verticalAlign=middle;whiteSpace=wrap;rounded=0;" parent="qYgjz1DPL4UpU3rZ518J-99" vertex="1">
          <mxGeometry y="205" width="27" height="30" as="geometry" />
        </mxCell>
        <mxCell id="qYgjz1DPL4UpU3rZ518J-98" value="&lt;font style=&quot;font-size: 14px;&quot;&gt;\((4)\)&lt;/font&gt;" style="text;html=1;align=center;verticalAlign=middle;whiteSpace=wrap;rounded=0;" parent="qYgjz1DPL4UpU3rZ518J-99" vertex="1">
          <mxGeometry y="306" width="27" height="30" as="geometry" />
        </mxCell>
        <mxCell id="pzAsy9Nc4zAJI4swjigs-1" value="" style="shape=image;verticalLabelPosition=bottom;labelBackgroundColor=default;verticalAlign=top;aspect=fixed;imageAspect=0;image=data:image/png,iVBORw0KGgoAAAANSUhEUgAAAggAAAGoCAMAAAAU1u0iAAAAAXNSR0IB2cksfwAAAAlwSFlzAAALEwAACxMBAJqcGAAAAdRQTFRFAAAAkJCQhYWFenp6b29vZGRkWVlZTk5OQ0NDSEhIU1NTXl5eaWlpdHR0f39/ioqKgYGBXFxcSkpKNzc3JSUlEhISAAAACQkJLi4uUlJSdnZ2iYmJX19fOzs7KSkpFhYWBAQECAgIGhoaLS0tQEBAS0tLVlZWYWFhbGxsd3d3goKCjY2NiIiIfX19cnJyZ2dnW1tbUFBQRUVFMTExExMTJiYmODg4cXFxg4ODWFhYIyMjPT09EBAQERERTExMhoaGbm5uNDQ0MDAwOTk5MjIycHBwdXV1PDw8AgICZWVlTU1NFxcXAwMDOjo6gICAVFRUR0dHfn5+WlpaDg4OQkJCh4eHPz8/YGBgbW1tHx8fHBwcNTU1IiIij4+PQUFBeXl5REREJycne3t7UVFRDAwMampqaGhoLCwsHR0dICAgi4uLBgYGXV1dVVVVeHh4KysrISEhBQUFT09PCwsLZmZmLy8vJCQkFBQUhISEKCgofHx8a2trKioqRkZGMzMzPj4+NjY2Hh4eGxsbjIyMDw8PY2Njjo6OSUlJAQEBDQ0NV1dXGRkZBwcHCgoKc3NzGBgYaWlpLS0tVlZWf39/f39/YmJiTU1NAAAAYGBgAAAAcnJyFRUV8vC7UAAAAJx0Uk5TAAMcNk9pgpy1qpB3XUQqESZ7pdH7////5pM/E3TI8v/////ovKOJcFY9IwoVL0hifpex3//5z0shhf/D//+gGlLY4czdTUHG/2ae///KKI6sLYD/uBi/clT//9b/Bbo4s/Yzlf9bYOv//w7/eYw67f//mf9k5P3/H/QxWe+u2sHT//8M/2sHp///h////0b/AAECAQBtAQEVEgP//EUMpwAAF8VJREFUeJztnXuATtX6x9c7bjNjZoyh5TZCaDgMZhSOk5Bccksu56iUjJQmMlEhSpJLRo1LiRyFRCQpSiVyOy6RQkxn6oeEiDHNMK4z5ve+20kXY2avtddaz1p7P58/Oqdz9vus7/vO591rv3uvi48giB8fdABED1AExAJFQCxQBMQCRUAsUATEAkVALFAExAJFQCxQBMQCRUAsUATEAkVALFAExAJFQCxQBMQCRUAsUATEAkVALFAExAJFQCxQBMQCRUAsUATEAkVALFAExAJFQCxQBMQCRUAsUATEAkVALFAExAJFQCxQBMQCRUAsUATEAkVALFAExAJFQCw8K4Lvz2RC54HGKyJEng63/uCFHxk46oj8QLrhZhEqWX/6M1f+veTvJ4A9+Rxe9/L/dSQvL/BvXvPBnSIE1StyMjvwX673+TKO1PVtYS1QMS/PYz64TYTI2vuDA+eA0HPVUn91XO03H2rszHZcS3NcJEKRJt8H/qNkVO6uS0ILB1Uvl0ZIjM+3TmhZvXCJCC2sXr9uWt5hWS3ERPzo/2fsuhxZDQDjAhHCYn7y/7Oeb5X0ltr4fDsIuZR1QXpL6jFchDvSThESfzFIvgS/0STKt400WnVeWYOKMFiEutW2+vOHF0tV3nLnoweIr8kHytuVibEi1MwkpKnvfajmmxw+T26kS6GaF4+ZIpS+bQO5NTW/u0IK6eFbS0KaLIINIQwDRejpW03izmnxU65U6/Xk9j07oWOIwDQR7sr8lrRengUd43fqlDhE2uS8Ax3DMUaJcJ/vExLUdi50jL/iCw4n7edAp3CIQSLUKpvW4atd0CnyJ+G7H1qtM/qZhDEiVMglkWnQIQoi/hDpNBs6BD+GiNDoQGffLOgQhfHQ3rS7djI/6NQEE0ToHbK021GwOwYsJKbt6uF7BToFF/qLEN3gyzpfQIewz8BFpGrMW9Ap2NFdBH/Pe+osdAg2Hju++vo47fuxv6K1CM0bLCQXM6BTcNB9ffzG09Ah2NBZhKQFeQ3UPVYUS0j4vSu/gw7Bgr4iNDrga6fdvSMGuq8v+ZNBo1h0FWHwfNLS9Oc5lc/ft0rTG2BXo6cIT8wjTZdBhxDAvauanfoMOoQ9dBQh9sYNQUehQwjiybkxcVOhQ9hBQxGemtPHNwE6hDiGz+5TZBx0iMLRToTK50m/sdAhhJKY9dnNGzR6cJ4/molQIZcU+Rk6hHCGHfz8oRegQxSCViKEhZLY1dAhpBAeQqpvhg5RIBqJEFEvrduMPOgUsnhmZrMTWgyvuwb6iPDAxz3eN3poRyH42m+L+xQ6xLXRRYTE9/Ju+hg6hGRiMjS+DtZEhMHzQ29+FzqEfJ6d0e016AzXQA8Rhr75yGjoDEqIvf3tXi9Dh8gXHURocIT0NOLumwgGz7/3893QIfJBAxHuXt07GTqDSh55r//z0BmuBlyEJ+aRO40bzuOMEbNI6f9Ch/gr0CIMWnjPZOAIALT9OvggdIa/ACtC4/2k4jegCYConU7Sc6FD/AlQEZ6bnnccsn1IkhZE74DO8EcARYg9Rlx/D6kA7tx840boDH8AToQSpTxxD+na9Fin0zUjmAidtrZ+G6ptXWj4010zoTP8BpQIT8351zSgpjWiWGlSTpO7S0AiUNLAkEGdkum2QZOJXDAiUPILSLsacv8n12+HzhAAQoSgso1WADSrKeEhJOMidAgQEWqdvHuK+lY1ZvSrGjxsUS/CAx+fPlP4UZ6i7/KYDdAZlIvw/Csd31DdpvaEhZLu02EjqBYBLxPzJSKYnISdMatYBPTgWlAC22MqFWHMtJL7VbZnFC9MTXwOsHmVIoydUneNwuZMo2xQ2D641hWKUCNL88k+0HTaCthxqhMh/tA57WeCAhN3mCQ9DdS2MhHGp/xtraq2jKXfByQKaOUlVSK0327k8mjKoaTU9yANKxKhQm7OSTUtmQ4lMDPo1Yhw4681/6OkIRfw4Icgv7GViNB1Y266inbcwZNzIX48qBAh+kK9zxU04xqCIwBMUCDC2Cn6jMwzgy6b1JsgX4SHllXZJr0Rl3Hrd8pNkC5CrZPaLgmgMX2XqzZBtgitd0LeQDeXgYsUmyBZhDbf9HlRbgtupetGtSbIFaH3ysdGSm3AxURfUGqCVBFij/mOyazvbsZOUWmCVBEoDlt3wkPLFJogUwQcl+aQnmvUfYISRaAkwUWLrIPQeL8yE+SJkLRg0Ahpxb1CxRxVJkgTocumrHOyanuIhBWKTJAlQu+VbeZLKu0tIoLVrDYmSwQ6eJikyl5j7BQlp1ZJIlQ9gz8YRNFlk4rZ0nJEGPk6roMhjkELT1yS3ogUEeIO47o4Ium2Qf75VYYItdNN2t7dBBTcmpMhAtVjMRg3Id8ECSK8+BJeKApHugniRXh2RnNPr6MpCdp1htT6wkUoHnn/JNE1kcAjfbmb3IgWofOWh8cILolYFCvdabbE8qJFmLBzoeCKyP+omSlz6WbBInRfjxeK0rh9V/1V0oqLFeFvJ554SmhB5I8kJ8tbYkKsCFXL4h0EmUj8ESlUhPhDx127t7MWJC7p8Kak0iJFCCpba73AcsjVDFgsax0qkSJMIk8IrIbkR/lLxQ5LKSxQhC6bcLCqfGRdJogToe4vET8IK4Zci8QlcharFCfCSy/iLQQVDFgs5b6SMBGiinpno29Yyl+S8Y0TJULiEhyMogoqY7UtUSLgIAR1JC6JXS28qCAR2m+HWjHUiwxYfOcs0TXFiDBuct/xQgohtpBwmSBGhBemYsegFCp8d3UhIoyd0nKRiDqIXRKX3LpEbEUhItAer4oog9hnwOJhg4UWFCFC143Vtgoog7Ag+jJBhAjiOyykcKjYO/oCROi7XJcdzz1FTIbQrSIFiEAfHeW8CMJMytsih4M5F2F8Cv1WQBCEGZqdLa6YcxEozI4jiP8rKPB60bEINbLwXhIUtPJXwmo5FoG2fltEDoSD3isfHCeqllMRyhTBEwIcDdMPiCrlVATabp6QHAgXtNfLgio5FEHOaBnELjEZoj5/ZyLc9+lNHwsKgnCR8pWg5SydiVA2CE8IwNDb3hFSx5EIzVN/vSAkBcKNqJsJjkTovxRPCOAIevjkRIRKFxuuFJEBcULvlUIePjkR4dkZeELQgIblPxJQxYkIFBfi1wJ69pTzIg5EKB6JJwQtaJsmYMKLAxE6Rixw3j4iACrgWo1fhM5bBA+fRHiJP+T83MwvwsjXsWfQBRqZ5rQEvwgU18nRhhKlHH8puUXouxxPCPpAmy5zWIFbBHrphMOmEXFMnOT0a8krQu10cYNjEOfQql86K8ArQtIC7Bl04l9fOPx78IpAcdcmvaDBBx29nlOEkHA8IehFWGjtdU5ezykCDTrqpFVEPNV8+5y8nE+EFnsV7ESIMFHvaJlUBy/nEyElFxfb1Y5mjV5y8Go+EYTOukPEkLCiy+v8r+YSQcAdTUQ8HfY6eBzNJcKQbLlbzyFcNN7f5EPuF3OJQGXuMoVwQx1s68EjQrHS2DNoycBF/H8YHhGSKg/hbg+RCY3ewftSHhFo5nne5hCptNrNfUrgEKFIGewZdIVmXOR8JYcIuCSCvtxTgfemEocItMRPnI0hsqmdfsMWvleyi+C7Tt52pIhTuJ9Gs4uAtxV1psERzr8OuwhDiuPWDBpDT53leh27CBT3atGZUa/xnRKYRcDbippDK+zkeRmzCEnv/8jTDqKKXrFDeV7GLAI9fYanHUQVsce4Bi+yi4BLcGvOozkzOV7FKkJYKF4iaA7fFAdWEcrcn8LRCqISWup79hexikAfGc3eCKIUrodBzCLg6hjaExEsX4S6v+Algv7Qx4czv4ZRBFwVwQR4+gZGEVK+XMjcBKKazluki0Crb2ZuAlEOR9/AKsLxPNYWEPVw9A1sItQ66eVLhMlJ0AnswtE3sInwbOgw1gYQCNj7BjYRaOxqxvouY8og6AT2YO8bGEXw/LbwUx+DTmAL9r6BUQQvXyJcZtpA6AS2YO4bmERosg9FIK8MgE5gB+a+gUkEHKZmDMx9A5MIz8xEEUyBtW9gEmH4ho1MxRE4WPsGJhFeSsZF9UyBtW9gEoHivq/mwNg3sInQbyxbGAQOxr6BTYRih9nCIHC02CtNBN91+KPBIGh6LsPRLCI03o8iGARtP4fhaBYRQsNQBIMYXnIkw9EsItybuYI1DAJH6WIs31sWETqUns8aBgGEaXYiiwiCNqhHFME0X5lJBI7h8ggcVRJG2T+YSYROs5nDIHDUzGS4SGAS4ZalzGEQOJimvjGJMGgEcxgEEDrqUdvHMomAy2iZRdW29pfMYBKhwWfsYRA4WNboZhKh3G72MAgc9Y5KEsHZFpOIcqj9HQCZRGj7FkcYBA5a8z92D2USAZ85GcbwrFftHooiuJk7vrL9J0MRXA1NetrmkQwijJmGIpgGbbjS5pEMIgx7A0UwDdpuns0jGUTAFdXM44Y2dvfsNfgaYXoidAL9sb97g7kivObrDx1Bf14dLUWEC7/yhJHETN9D0BH0p3mqFBFO5vCEQQChA5+xdyCTCP98hSsMAgft8rq9A5lE4Fn+HQHF9iwXFhGqVvf4mmoG0uH61+wdyCJCldve5AqDwFH5vM2rRRYRht/QjysMAkf0BQkitArBKW+mYXshPBYRmMbJI3pgdzQRiwhssyoRLbC7yg2LCIxrcCA6QJsus3Uciwhcm0YhsAzdsMnWcWxrKKEIxtHogL0/GpsI57K4wiBw2L2wYxOBYS4dogd2+3M2EaJ3cIVB4LC7FB6TCLc0G88VBgHE5oUdkwjVW/6bKwsCCO0+3c5hTCJEFcWfDcZBHxxn5zAmEZ6YhyIYh81VLXArH7dDL2bYOQw393I7tNZ6O4cxitDxDa4wCBzt8j61cxijCNnZXGEQOK7ramshJUYRbl3CFQaBo9elBXYOYxNh6OwTXGEQOG6vauvmD5sIt+3fzxUGgaP7eltX+GwitN+OPxtMo0KuBBH6fYAimIbNebBsIoybjCKYxssTJIiAq/Cah83bwawitH6bJwwCiL3bwYwiMO9G7zn0W2BIigitd+r2NrXD5vN/ddgLxCgCodft4QnjIWyvSKAKe3OdmEWITOMJ4yHow2OgI/DAKkLyGYYNozyJ3RklmsEqgs37VB7G0OtpVhH0uyjWjRpZRn5CrCLgfj6F4RkRcDvYgvGKCC0P4JPoAvGKCPV/NvJ9qsMrIuAtpULwjgi4MXCBeEaEWZtwtcWC8IwI41OMfKPK8IwImq3Wrx0eEiEWl2QuAO+IEH/IyHeqiifnGvnxcIhQ53jCBPFBXENysldEIDTO1rRKj9Kxiu1teHWCRwSbc2c8Cr1nMnQEHnhEKFWCfis8iGtg2KFdJ3hEwCeQBUF/vQAdgQcuEf65FvuGa0LPnoKOwAOXCD3W6TZkWyPo8TzoCDxwiUBo1jnBOVxD7DEzz5Z8IrT92sx3qwBTx2vwiTDsjaSnBQdxC3GHvSSCqbM4FHD7Lk+JYHc7CO9B63wBHYELThE6b0ER8ke7qY824RSB0Nx0oTncQuISQ78hvCIUjzT0DUvmzs2Gfi68IpB25ecIjOEanooYCR2BD24RxvuGiczhFox9DMMtAulYbrbAHG6BVtsKHYEPfhFa7jG0N5RJwgpTPxR+EXCp9nwwdx91ByIkLTD1TcvjhjYzoCNw4kCEiGCbG5F7CJp5HjoCJw5EIN2aDhGWwyXQJh9CR+DEiQg915RJFRbEFZh7ieBIBEJv/khUDndQtZKRA1cDOBKh60ac6vInaLHD0BF4cSQCoQ9MFJTDFZg6KCWAMxG6bDL3nUugWv1l0BG4cSYCoXXXiMnhCkzeH9WhCC334IpKVxhYNAU6Aj8ORSA0bJ+QHG7gxXe+ho7Aj1MRJk667R0hQVyAyT2DYxFItWyT375Iind6DzqCAxyLEHvM2NvrgrmumcnrDjoWgZS/hKeEAJUuGv05OBeB0N7JzouYz6B9y6EjOEGACHduLrvXeRXjMfpSUYgIpGr0RgFVDOcfeUbu4HMFESL0XjlohIAyZkPPZUFHcIQIEcjI180+LQogruG/oSM4Q4gIhLafI6SOuZg65fEKYkQw+fmrEMZOMf0DECMCmXDS2wMTHs8yfbaPIBEq5nh6RHPFHNNPCKJEIK12G/9ROCBljdE3kwKIEoGUu8m7A1nDQ8z/FggTgdBS3wurZRiPLzd0CvQfECfCq6ONndzhkAGLzT8hCBTB2PXEHEOL/AwdwTkCRSDtqswUWM0Ynpnphi+ASBHGTGu5SGA5U6AZF6EjCECkCKTBETd8Nxgpn3cMOoIIhIpABlUcKrSeATRPLXoEOoMIxIpAaLt5YgtqT4fGz0JHEIJgEYLKNvhMbEXNKRpl7rzXPyFYBHMXnOSEBh2FjiAG0SKQp47MF11SY8oUcYv3wkUgNPE54TV1pcXe+qugMwhCvAiERu8QX1RPDN3aLz8kiFCkzOkz4qvqyCOhL0FHEIYEEUhMRun/SiirHRMnueUCgcgRgYSEn8yRUVcvxk0e9Sh0BnFIEYE8Ofcf70sprBPl6rhptRg5IpAqZ1101syfGlmueouSRCCUuOpjupra6bXXQWcQiSwRXG8C/fsH0BGEIk0EQkvul1YbnpQF26AjiEWeCBHBIT9KKw5NmZs/gY4gGHkikDu+6v+8vOqguOoOwmUkikCiitb7XGJ5OCrmnM+EziAamSKQvsu7mrqhSYFQ1zxq+h2pIpARs9x4xWjsln4FIVcE0jzVfb8iqc8Vo1X/gmQRXHg/wXVv6DLSRXDbB3fDaVe9nSvIF8FdJrT92qWP0xSI4DfhwXEKmlFB9VNNzd2bo0BUiECef6XCThXtSKfXZw+Pgc4gCSUikOemdzJ9jaEA/Zfe9DF0BlmoEYF0Xx/3qZqWJJKc7OLBmIpEILd+V8PsJWoJGfpm8UPQGeShSgQyYDE5cUlVYzK4Jc3Ve9UoE4EkLiG3GLyzxZC3Or4BnUEm6kQIbPFh7kTBSRNdMtn1WqgUwd89NPooT2WDwmi3w0U3xfJFqQiB7sHEdWYSVrjyOdOfUCtCoHuIXa24SceEht3l/lXCVIvg7x6aGbYr3qCFlQze2NMuykUIdA9GTYhrt2PYYOgMClAvQqB7MGefj7DQ0APQGZQAIYK/exiy/V2Ihpm5/5O+46EzqAFEBEI6bGuxGKZlJpKTPbPSOJAIJPoCqbYVqG27dN5i1tWMI6BECIzxCD4I1rgdWu1209CqwoATgbT5hlzMgGu+EFrsJY8Phw6hEEARAqMU+pR6GjLAtRk+O2wfdAalgIpASsWmaTn2q3Qx4rXNbWFFIOTv/0d6TgXOcBVVztb5AjqDaqBFIOTmH+vqtRZRzczQ8N3QIZQDLwJp0e5ljebPR0SdyTwPHQIADUQgJKzsGU1UiCh7+tFR0CFA0EIEQnpuzdZABb8GIfHunMhUKJqIQEjrKh8Cq+DXIO9kLmgEQLQRgZDwoVMBVfBr0GyzKzbl4UMjEQipXfIgkAp+DYbO3QXStCZoJQIhCavP9k9V/oTar0GPPWtVt6oXmong/6MkLIhfr3RmWdevs+Mrz1LZoo5oJ4KfuMOk1T5Fz6gTPj9Hwu4eq6YxndFRBP9poc9CUrOD/OdRUUUJ6fWy9GZMQE8R/HRtOtFX4RuZLYyITCb9L0yQ2YRBaCsCIZX6TScdwiU9kRrz5VYSEumO5TuEoLEIfu7Y7iPdNgs/L4SFXSLEM6MR7aG3CH5CW24j5O61wr67rXO/JaTziTVZogq6BO1F8BPRdV02IbklHN/3sySIL78UJbgaE0QI0LjGKkJ6RKVP53x9bJEovwSkRKT3RhrYwxQRAtQvHtgAIiS6/XSGpQo6H/wpqHFOC7J2R72tp6RFMx+TRAhQq8eJy3Noa3RaU+AS6U9fWH0w6PK7a/V+zAl3r3IhANNEuEzz8icyrUkR8XWKZi4perF03x8yGr51/c+pQUGVajW7cofogWmDD74Fl9IozBThf/R+t0yfSwfqf3A4+/f/LaZG2r5Om/FKgBWjRUDEgSIgFigCYoEiIBYoAmKBIiAWKAJigSIgFigCYoEiIBYoAmKBIiAWKAJigSIgFigCYvH/wG9M9BlkK7wAAAAASUVORK5CYII=;flipH=1;flipV=1;" parent="1" vertex="1">
          <mxGeometry x="1060" y="720" width="269.81" height="220" as="geometry" />
        </mxCell>
        <mxCell id="pzAsy9Nc4zAJI4swjigs-3" value="" style="shape=ellipse;fillColor=#0065FF;strokeColor=none;html=1;sketch=0;" parent="1" vertex="1">
          <mxGeometry x="-220" y="320" width="10" height="10" as="geometry" />
        </mxCell>
      </root>
    </mxGraphModel>
  </diagram>
</mxfile>
